# xmcd
#
# Track frame offsets:
#	182
#	14072
#	26732
#	41450
#	53707
#	67855
#	81365
#	95980
#	114250
#	130155
#	141285
#	152887
#
# Disc length: 2449
#
# Revision: 1
# Processed by: cddbd v1.5.1PL0 Copyright (c) Steve Scherf et al.
# Submitted via: CDex 1.50
# Normalized: r0:TSWAP
#
DISCID=a3098f0c
DTITLE=Various Artist - Jazz Greats  Disc 2 (British Airways)
DYEAR=1995
DGENRE=Jazz
TTITLE0=Charlie Parker - I Can't Get Started
TTITLE1=Jelly Roll Morton - High Society
TTITLE2=Billie Holiday - Lover Man
TTITLE3=Errol Garner - Stardust
TTITLE4=Errol Garner - Stormy Weather
TTITLE5=Louis Armstrong - C'est si Bon
TTITLE6=Fats Waller - Honey Bush
TTITLE7=Stephane Grappelli and Joe Venuti - Tea For Two
TTITLE8=Fats Waller - Last Night a Miracle
TTITLE9=Django Reinhardt - I Got Rythm
TTITLE10=Thelonious Monk - Monk's Mood
TTITLE11=Stan Getz - Strike Up The Band
EXTD=YEAR: 1995
EXTT0=
EXTT1=
EXTT2=
EXTT3=
EXTT4=
EXTT5=
EXTT6=
EXTT7=
EXTT8=
EXTT9=
EXTT10=
EXTT11=
PLAYORDER=
